<svg width="100" height="100" viewBox="0 0 100 100" fill="none" xmlns="http://www.w3.org/2000/svg">
<path d="M0 0H100V100H0V0Z" fill="white"/>
<path d="M25.9719 23.3623L28.4763 34.2145L34.8299 23.3623H37.914L35.1313 39.1304H32.4647L33.5313 33.1014L34.8299 27.7217L29.2183 37.2753H26.7371L24.627 27.5826L24.0009 33.1014L22.9342 39.1304H20.2676L23.0502 23.3623H25.9719Z" fill="#141414"/>
<path d="M42.3794 58.9371L41.9388 55.853H36.5359L35.0287 58.9371H32.1533L40.1997 43.1689H42.6577L45.162 58.9371H42.3794ZM38.9011 51.0298L37.7881 53.3023H41.591L41.2664 51.0298L40.8026 47.0414L38.9011 51.0298ZM47.7959 58.9371L50.5785 43.1689H55.4481C56.7003 43.1689 57.7438 43.4549 58.5785 44.0269C59.4288 44.5834 60.024 45.3487 60.364 46.3226C60.7196 47.281 60.7892 48.3786 60.5727 49.6153L60.0626 52.4675C59.707 54.5081 58.9805 56.1003 57.8829 57.2443C56.7853 58.3728 55.2858 58.9371 53.3843 58.9371H47.7959ZM55.2626 45.8356H52.8974L51.0423 56.2704H53.5235C54.5747 56.2704 55.394 55.9458 55.9814 55.2965C56.5843 54.6317 56.994 53.6888 57.2104 52.4675L57.7206 49.6153C57.937 48.4714 57.8442 47.5593 57.4423 46.8791C57.0558 46.1834 56.3293 45.8356 55.2626 45.8356Z" fill="#141414"/>
<path d="M61.6055 78.7442L64.3881 62.9761H69.2576C70.5098 62.9761 71.5533 63.2621 72.3881 63.834C73.2383 64.3906 73.8335 65.1558 74.1736 66.1297C74.5291 67.0882 74.5987 68.1857 74.3823 69.4224L73.8721 72.2746C73.5166 74.3152 72.79 75.9075 71.6924 77.0514C70.5948 78.1799 69.0953 78.7442 67.1939 78.7442H61.6055ZM69.0721 65.6427H66.7069L64.8518 76.0775H67.333C68.3842 76.0775 69.2035 75.7529 69.791 75.1036C70.3939 74.4389 70.8035 73.4959 71.02 72.2746L71.5301 69.4224C71.7465 68.2785 71.6538 67.3664 71.2518 66.6862C70.8654 65.9906 70.1388 65.6427 69.0721 65.6427Z" fill="#141414"/>
</svg>
