<svg width="250" height="250" viewBox="0 0 100 100" fill="none" xmlns="http://www.w3.org/2000/svg">
<rect width="250" height="250" fill="#075056"/>
<path d="M26.1308 21.68L28.7228 32.912L35.2988 21.68H38.4908L35.6108 38H32.8508L33.9548 31.76L35.2988 26.192L29.4908 36.08H26.9228L24.7388 26.048L24.0908 31.76L22.9868 38H20.2268L23.1068 21.68H26.1308Z" fill="#EEEEEE"/>
<path d="M44.6129 59L44.1569 55.808H38.5649L37.0049 59H34.0289L42.3569 42.68H44.9009L47.4929 59H44.6129ZM41.0129 50.816L39.8609 53.168H43.7969L43.4609 50.816L42.9809 46.688L41.0129 50.816ZM50.219 59L53.099 42.68H58.139C59.435 42.68 60.515 42.976 61.379 43.568C62.259 44.144 62.875 44.936 63.227 45.944C63.595 46.936 63.667 48.072 63.443 49.352L62.915 52.304C62.547 54.416 61.795 56.064 60.659 57.248C59.523 58.416 57.971 59 56.003 59H50.219ZM57.947 45.44H55.499L53.579 56.24H56.147C57.235 56.24 58.083 55.904 58.691 55.232C59.315 54.544 59.739 53.568 59.963 52.304L60.491 49.352C60.715 48.168 60.619 47.224 60.203 46.52C59.803 45.8 59.051 45.44 57.947 45.44Z" fill="#EEEEEE"/>
<path d="M68.5119 81L71.3919 64.68H76.4319C77.7279 64.68 78.8079 64.976 79.6719 65.568C80.5519 66.144 81.1679 66.936 81.5199 67.944C81.8879 68.936 81.9599 70.072 81.7359 71.352L81.2079 74.304C80.8399 76.416 80.0879 78.064 78.9519 79.248C77.8159 80.416 76.2639 81 74.2959 81H68.5119ZM76.2399 67.44H73.7919L71.8719 78.24H74.4399C75.5279 78.24 76.3759 77.904 76.9839 77.232C77.6079 76.544 78.0319 75.568 78.2559 74.304L78.7839 71.352C79.0079 70.168 78.9119 69.224 78.4959 68.52C78.0959 67.8 77.3439 67.44 76.2399 67.44Z" fill="#EEEEEE"/>
</svg>